<svg width="16" height="17" viewBox="0 0 16 17" fill="none" xmlns="http://www.w3.org/2000/svg">
<path d="M16 2.88563C15.405 3.14784 14.771 3.32164 14.11 3.40603C14.79 2.99815 15.309 2.3572 15.553 1.58464C14.919 1.96439 14.219 2.23262 13.473 2.38231C12.871 1.73835 12.013 1.33951 11.077 1.33951C9.261 1.33951 7.799 2.82033 7.799 4.6357C7.799 4.8969 7.821 5.14806 7.875 5.38716C5.148 5.25354 2.735 3.94049 1.114 1.94028C0.831 2.43355 0.665 2.99815 0.665 3.60595C0.665 4.74721 1.25 5.75887 2.122 6.34457C1.595 6.33453 1.078 6.18082 0.64 5.9387C0.64 5.94875 0.64 5.96181 0.64 5.97487C0.64 7.57625 1.777 8.90638 3.268 9.21279C3.001 9.28613 2.71 9.32129 2.408 9.32129C2.198 9.32129 1.986 9.30923 1.787 9.26503C2.212 10.57 3.418 11.5295 4.852 11.5606C3.736 12.4377 2.319 12.9661 0.785 12.9661C0.516 12.9661 0.258 12.954 0 12.9209C1.453 13.8622 3.175 14.3997 5.032 14.3997C11.068 14.3997 14.368 9.37654 14.368 5.02248C14.368 4.87681 14.363 4.73616 14.356 4.59652C15.007 4.13238 15.554 3.55271 16 2.88563Z" fill="#B0B8BC"/>
</svg>
