<svg width="16" height="17" viewBox="0 0 16 17" fill="none" xmlns="http://www.w3.org/2000/svg">
<path fill-rule="evenodd" clip-rule="evenodd" d="M13.456 2.77144C14.415 2.82569 14.886 2.96835 15.32 3.74392C15.772 4.51849 16 5.85264 16 8.20247V8.20548V8.21051C16 10.5493 15.772 11.8935 15.321 12.66C14.887 13.4356 14.416 13.5762 13.457 13.6415C12.498 13.6968 10.089 13.7299 8.002 13.7299C5.911 13.7299 3.501 13.6968 2.543 13.6405C1.586 13.5752 1.115 13.4346 0.677 12.659C0.23 11.8925 0 10.5483 0 8.2095V8.20749V8.20448V8.20146C0 5.85264 0.23 4.51849 0.677 3.74392C1.115 2.96734 1.587 2.82569 2.544 2.77044C3.501 2.70614 5.911 2.67902 8.002 2.67902C10.089 2.67902 12.498 2.70614 13.456 2.77144ZM11 8.20448L6 5.19059V11.2184L11 8.20448Z" fill="#B0B8BC"/>
</svg>
